dataset
version=1
nRows=19
nColumns=39
inDegrees=no
endheader
time	sternoclavicular_r2	sternoclavicular_r3	unrotscap_r3	unrotscap_r2	acromioclavicular_r2	acromioclavicular_r3	acromioclavicular_r1	unrothum_r1	unrothum_r3	unrothum_r2	elv_angle	shoulder_elv	shoulder1_r2	shoulder_rot	elbow_flexion	pro_sup	deviation	flexion	cmc_abduction	cmc_flexion	mp_flexion	ip_flexion	mcp2_flexion	mcp2_abduction	pm2_flexion	md2_flexion	mcp3_flexion	mcp3_abduction	pm3_flexion	md3_flexion	mcp4_flexion	mcp4_abduction	pm4_flexion	md4_flexion	mcp5_flexion	mcp5_abduction	pm5_flexion	md5_flexion
5.715000	-0.020878	-0.270910	0.097795	0.087400	0.068901	0.090789	-0.055152	0.017605	-0.024422	0.106808	0.081989	0.027437	0.146525	0.146525	1.422523	1.285783	0.000000	0.000000	0.000000	0.000000	0.000000	0.000000	0.000000	0.000000	0.000000	0.000000	0.000000	0.000000	0.000000	0.000000	0.000000	0.000000	0.000000	0.000000	0.000000	0.000000	0.000000	0.000000
5.720000	-0.020772	-0.271136	0.098131	0.086912	0.068429	0.090667	-0.055625	0.016692	-0.024433	0.106410	0.081445	0.027437	0.146525	0.146525	1.425221	1.285659	0.000000	0.000000	0.000000	0.000000	0.000000	0.000000	0.000000	0.000000	0.000000	0.000000	0.000000	0.000000	0.000000	0.000000	0.000000	0.000000	0.000000	0.000000	0.000000	0.000000	0.000000	0.000000
5.725000	-0.020666	-0.271361	0.098474	0.086415	0.067947	0.090547	-0.056106	0.015754	-0.024431	0.106005	0.080892	0.027437	0.146525	0.146525	1.427930	1.285535	0.000000	0.000000	0.000000	0.000000	0.000000	0.000000	0.000000	0.000000	0.000000	0.000000	0.000000	0.000000	0.000000	0.000000	0.000000	0.000000	0.000000	0.000000	0.000000	0.000000	0.000000	0.000000
5.730000	-0.020558	-0.271585	0.098825	0.085908	0.067455	0.090431	-0.056594	0.014791	-0.024417	0.105591	0.080332	0.027437	0.146525	0.146525	1.430648	1.285413	0.000000	0.000000	0.000000	0.000000	0.000000	0.000000	0.000000	0.000000	0.000000	0.000000	0.000000	0.000000	0.000000	0.000000	0.000000	0.000000	0.000000	0.000000	0.000000	0.000000	0.000000	0.000000
5.735000	-0.020449	-0.271808	0.099183	0.085391	0.066952	0.090317	-0.057090	0.013802	-0.024390	0.105170	0.079764	0.027437	0.146525	0.146525	1.433371	1.285292	0.000000	0.000000	0.000000	0.000000	0.000000	0.000000	0.000000	0.000000	0.000000	0.000000	0.000000	0.000000	0.000000	0.000000	0.000000	0.000000	0.000000	0.000000	0.000000	0.000000	0.000000	0.000000
5.740000	-0.020339	-0.272030	0.099549	0.084865	0.066440	0.090205	-0.057592	0.012788	-0.024349	0.104742	0.079188	0.027437	0.146525	0.146525	1.436095	1.285171	0.000000	0.000000	0.000000	0.000000	0.000000	0.000000	0.000000	0.000000	0.000000	0.000000	0.000000	0.000000	0.000000	0.000000	0.000000	0.000000	0.000000	0.000000	0.000000	0.000000	0.000000	0.000000
5.745000	-0.020227	-0.272249	0.099923	0.084330	0.065917	0.090097	-0.058101	0.011750	-0.024296	0.104305	0.078604	0.027437	0.146525	0.146525	1.438817	1.285053	0.000000	0.000000	0.000000	0.000000	0.000000	0.000000	0.000000	0.000000	0.000000	0.000000	0.000000	0.000000	0.000000	0.000000	0.000000	0.000000	0.000000	0.000000	0.000000	0.000000	0.000000	0.000000
5.750000	-0.020114	-0.272466	0.100303	0.083785	0.065384	0.089992	-0.058616	0.010688	-0.024230	0.103861	0.078013	0.027437	0.146525	0.146525	1.441535	1.284936	0.000000	0.000000	0.000000	0.000000	0.000000	0.000000	0.000000	0.000000	0.000000	0.000000	0.000000	0.000000	0.000000	0.000000	0.000000	0.000000	0.000000	0.000000	0.000000	0.000000	0.000000	0.000000
5.755000	-0.020001	-0.272681	0.100690	0.083231	0.064842	0.089890	-0.059138	0.009602	-0.024150	0.103409	0.077414	0.027437	0.146525	0.146525	1.444243	1.284820	0.000000	0.000000	0.000000	0.000000	0.000000	0.000000	0.000000	0.000000	0.000000	0.000000	0.000000	0.000000	0.000000	0.000000	0.000000	0.000000	0.000000	0.000000	0.000000	0.000000	0.000000	0.000000
5.760000	-0.019886	-0.272893	0.101084	0.082668	0.064289	0.089792	-0.059666	0.008493	-0.024058	0.102949	0.076808	0.027437	0.146525	0.146525	1.446940	1.284707	0.000000	0.000000	0.000000	0.000000	0.000000	0.000000	0.000000	0.000000	0.000000	0.000000	0.000000	0.000000	0.000000	0.000000	0.000000	0.000000	0.000000	0.000000	0.000000	0.000000	0.000000	0.000000
5.765000	-0.019769	-0.273103	0.101485	0.082095	0.063726	0.089696	-0.060199	0.007361	-0.023952	0.102481	0.076194	0.027437	0.146525	0.146525	1.449620	1.284596	0.000000	0.000000	0.000000	0.000000	0.000000	0.000000	0.000000	0.000000	0.000000	0.000000	0.000000	0.000000	0.000000	0.000000	0.000000	0.000000	0.000000	0.000000	0.000000	0.000000	0.000000	0.000000
5.770000	-0.019652	-0.273309	0.101893	0.081514	0.063153	0.089604	-0.060738	0.006206	-0.023833	0.102005	0.075573	0.027437	0.146525	0.146525	1.452282	1.284487	0.000000	0.000000	0.000000	0.000000	0.000000	0.000000	0.000000	0.000000	0.000000	0.000000	0.000000	0.000000	0.000000	0.000000	0.000000	0.000000	0.000000	0.000000	0.000000	0.000000	0.000000	0.000000
5.775000	-0.019534	-0.273512	0.102306	0.080923	0.062571	0.089516	-0.061282	0.005029	-0.023701	0.101522	0.074944	0.027437	0.146525	0.146525	1.454920	1.284380	0.000000	0.000000	0.000000	0.000000	0.000000	0.000000	0.000000	0.000000	0.000000	0.000000	0.000000	0.000000	0.000000	0.000000	0.000000	0.000000	0.000000	0.000000	0.000000	0.000000	0.000000	0.000000
5.780000	-0.019414	-0.273712	0.102726	0.080324	0.061979	0.089431	-0.061831	0.003831	-0.023555	0.101031	0.074309	0.027437	0.146525	0.146525	1.457532	1.284276	0.000000	0.000000	0.000000	0.000000	0.000000	0.000000	0.000000	0.000000	0.000000	0.000000	0.000000	0.000000	0.000000	0.000000	0.000000	0.000000	0.000000	0.000000	0.000000	0.000000	0.000000	0.000000
5.785000	-0.019294	-0.273908	0.103151	0.079716	0.061377	0.089349	-0.062385	0.002612	-0.023396	0.100532	0.073667	0.027437	0.146525	0.146525	1.460114	1.284175	0.000000	0.000000	0.000000	0.000000	0.000000	0.000000	0.000000	0.000000	0.000000	0.000000	0.000000	0.000000	0.000000	0.000000	0.000000	0.000000	0.000000	0.000000	0.000000	0.000000	0.000000	0.000000
5.790000	-0.019172	-0.274100	0.103582	0.079099	0.060766	0.089271	-0.062943	0.001373	-0.023225	0.100026	0.073018	0.027437	0.146525	0.146525	1.462662	1.284077	0.000000	0.000000	0.000000	0.000000	0.000000	0.000000	0.000000	0.000000	0.000000	0.000000	0.000000	0.000000	0.000000	0.000000	0.000000	0.000000	0.000000	0.000000	0.000000	0.000000	0.000000	0.000000
5.795000	-0.019050	-0.274289	0.104019	0.078474	0.060145	0.089197	-0.063505	0.000114	-0.023040	0.099513	0.072363	0.027437	0.146525	0.146525	1.465172	1.283982	0.000000	0.000000	0.000000	0.000000	0.000000	0.000000	0.000000	0.000000	0.000000	0.000000	0.000000	0.000000	0.000000	0.000000	0.000000	0.000000	0.000000	0.000000	0.000000	0.000000	0.000000	0.000000
5.800000	-0.018927	-0.274473	0.104460	0.077840	0.059516	0.089126	-0.064071	-0.001163	-0.022842	0.098992	0.071702	0.027437	0.146525	0.146525	1.467642	1.283891	0.000000	0.000000	0.000000	0.000000	0.000000	0.000000	0.000000	0.000000	0.000000	0.000000	0.000000	0.000000	0.000000	0.000000	0.000000	0.000000	0.000000	0.000000	0.000000	0.000000	0.000000	0.000000
5.805000	-0.018803	-0.274653	0.104907	0.077199	0.058877	0.089059	-0.064639	-0.002460	-0.022632	0.098463	0.071034	0.027437	0.146525	0.146525	1.470068	1.283802	0.000000	0.000000	0.000000	0.000000	0.000000	0.000000	0.000000	0.000000	0.000000	0.000000	0.000000	0.000000	0.000000	0.000000	0.000000	0.000000	0.000000	0.000000	0.000000	0.000000	0.000000	0.000000
